<svg xmlns="http://www.w3.org/2000/svg" version="1.1" xmlns:xlink="http://www.w3.org/1999/xlink" width="512" height="512" x="0" y="0" viewBox="0 0 64 64" style="enable-background:new 0 0 512 512" xml:space="preserve" class=""><g><path d="M62.343 40.827 51 26.649V15.131l-8.988 5.993L49 24.618v1.861l-3.02 2.113a24.708 24.708 0 0 1-2.458 1.495A11.185 11.185 0 0 0 41 25.628v-2.927c0-.68-.233-1.346-.657-1.874L33 11.649V.131l-8.988 5.993L31 9.618v2.031l-7.342 9.177A3.008 3.008 0 0 0 23 22.702v2.927a11.168 11.168 0 0 0-2.522 4.459 24.722 24.722 0 0 1-2.459-1.495L15 26.48V15.131l-8.988 5.993L13 24.618v2.031L1.658 40.827A3 3 0 0 0 1 42.701v2.209c0 1.488.808 2.781 2 3.496V63h58V48.407c1.192-.715 2-2.008 2-3.496v-2.209c0-.681-.233-1.346-.657-1.875zM59.919 41H55.72l-2.999-8.998zM45.988 20.876 49 18.869v3.513zm3.857 8.821L53.613 41H44.57zm-3.468 2.701L42.363 41h-1.004a13.15 13.15 0 0 0-2.233-1.861 14.767 14.767 0 0 0 3.678-2.87zM32 45c-1.654 0-3 1.346-3 3 0 .352.072.686.184 1H21.05c.508-5.598 5.222-10 10.95-10s10.442 4.402 10.949 10h-8.134c.113-.314.185-.648.185-1 0-1.654-1.346-3-3-3zm1 3a1 1 0 1 1-2 0 1 1 0 0 1 2 0zm-4.312 3h1.853A14.123 14.123 0 0 1 25 57.313V55.53A10.274 10.274 0 0 0 28.688 51zM25 52.941V51h1.472A8.321 8.321 0 0 1 25 52.941zm2.988-47.065L31 3.869v3.513zM32 13.601 37.919 21H26.081zM25 23h14v2H25zm-.549 4h15.097a9.184 9.184 0 0 1 2.161 3.97A24.259 24.259 0 0 1 32 33a24.27 24.27 0 0 1-9.71-2.03A9.2 9.2 0 0 1 24.451 27zM32 35c4.161 0 8.196-.972 11.858-2.821l-2.524 2.734a12.766 12.766 0 0 1-4.392 3.069 12.913 12.913 0 0 0-9.884 0 12.747 12.747 0 0 1-4.393-3.07l-2.524-2.734A26.224 26.224 0 0 0 32 35zm-10.805 1.269a14.747 14.747 0 0 0 3.679 2.871A13.067 13.067 0 0 0 22.641 41h-1.004l-4.014-8.602zM9.988 20.876 13 18.869v3.513zm4.167 8.821L19.43 41h-9.043zm-2.876 2.306L8.28 41H4.081zM19 50v11H5V48.991c.031.001.059.009.09.009a4.068 4.068 0 0 0 2.925-1.227A4.206 4.206 0 0 0 11 49a4.213 4.213 0 0 0 3.039-1.281A4.6 4.6 0 0 0 17.236 49h.265c.544 0 1.068-.108 1.564-.287-.042.423-.065.852-.065 1.287zm.353-3.767a2.602 2.602 0 0 1-1.852.767h-.265a2.605 2.605 0 0 1-2.342-1.447L14 43.765l-1 1.999c-.381.762-1.147 1.236-2 1.236s-1.619-.474-2-1.236l-1.002-2.003-1.038 2.084A2.078 2.078 0 0 1 5.09 47 2.092 2.092 0 0 1 3 44.91V43h18.063a12.942 12.942 0 0 0-1.398 2.921zM23 61h-2V51h2zm16 0H25v-1.395a16.113 16.113 0 0 0 7-7.063 16.11 16.11 0 0 0 7 7.062zm0-3.687A14.135 14.135 0 0 1 33.459 51h1.853A10.26 10.26 0 0 0 39 55.53zm0-4.372A8.321 8.321 0 0 1 37.528 51H39zM43 61h-2V51h2zm16 0H45V50c0-.435-.023-.864-.065-1.287.496.179 1.02.287 1.564.287h.265c1.219 0 2.354-.47 3.197-1.281A4.213 4.213 0 0 0 53 49c1.145 0 2.207-.45 2.985-1.227A4.066 4.066 0 0 0 58.91 49c.031 0 .059-.008.09-.009zm2-16.09c0 1.152-.938 2.09-2.09 2.09a2.076 2.076 0 0 1-1.869-1.154l-1.039-2.085L55 45.764c-.381.762-1.147 1.236-2 1.236s-1.619-.474-2-1.236l-1-1.999-.895 1.788A2.603 2.603 0 0 1 46.764 47h-.265a2.602 2.602 0 0 1-1.852-.767l-.313-.313a12.94 12.94 0 0 0-1.398-2.921H61z" fill="#8c52ff" opacity="1" data-original="#000000" class=""></path><path d="m37.929 47.013.143.357 1.857-.74-.143-.358C38.504 43.069 35.448 41 32 41s-6.504 2.069-7.786 5.272l-.143.357 1.857.74.143-.356C27.047 44.575 29.374 43 32 43s4.953 1.575 5.929 4.013z" fill="#8c52ff" opacity="1" data-original="#000000" class=""></path></g></svg>