<svg xmlns="http://www.w3.org/2000/svg" version="1.1" xmlns:xlink="http://www.w3.org/1999/xlink" width="512" height="512" x="0" y="0" viewBox="0 0 64 64" style="enable-background:new 0 0 512 512" xml:space="preserve" class=""><g><path d="M3.369 41.286a9.406 9.406 0 0 0 4.881 5.062l-.291 4.018a15.26 15.26 0 0 0-.012 1.995l.479 7.972A1.764 1.764 0 0 0 10.194 62h.043l5.238-.127a.893.893 0 0 0 .115-.01l8.045-1.135 5.633.985a1.014 1.014 0 0 0 .275.01l2.088-.216a1.791 1.791 0 0 0 .072-3.555l-3.557-.514-2.172-.814a6.044 6.044 0 0 0-1.983-.364l-9.674-.5-.082-2.789a13.054 13.054 0 0 1 .855-4.416 5.459 5.459 0 0 0 2.253 3.9 6.293 6.293 0 0 0 4.509.334l.905.519a1 1 0 0 0 1.3-.276l1.09-1.486a23.045 23.045 0 0 0 3.232-2.372 4.776 4.776 0 0 0 1.061-1.648c.009-.023.025-.042.032-.066v-.018a5.108 5.108 0 0 0 .33-2.517 7.73 7.73 0 0 0-3.338-5.3c.006-.083.018-.165.018-.248a3.752 3.752 0 0 0-7.5 0 3.7 3.7 0 0 0 .04.445 8.674 8.674 0 0 0-1.008.729L18 39.925a5.819 5.819 0 0 0-.545-3.162l-2.328-4.822a3.829 3.829 0 0 1 .986-4.6l2.363-1.985a9.047 9.047 0 0 0 3.1-5.439 4.447 4.447 0 0 1 1.373-2.534l6.4-5.888 1.231.86a26.228 26.228 0 0 0 12.133 4.558l.949.1.882 1.422a2.854 2.854 0 0 0 3.277 1.222l3.239-1.01 4.895-.474a2.252 2.252 0 0 0 .234-4.447l-7.286-1.486L40.1 8.35l-8.565-5.691a3.945 3.945 0 0 0-3.9-.261c-1.778.867-5.111 2.516-7.46 3.816-2.292 1.269-6.717 5.446-10.027 8.727a17.8 17.8 0 0 0-.938 1.029c-.006.006-.01.013-.017.019a17.354 17.354 0 0 0-3 4.943l-.73 1.851c-.013.036-1.295 3.7-2.619 7.126-1.1 2.862-.466 7.293.013 9.678a9.484 9.484 0 0 0 .512 1.699zM12.4 58.47a.986.986 0 0 0 1.029.97 1 1 0 0 0 .97-1.028l-.019-.643 9.568.49a4.31 4.31 0 0 1 1.328.238l2.273.852a1.025 1.025 0 0 0 .208.053l2 .289-.276.029-5.651-.99a.961.961 0 0 0-.312 0l-8.144 1.15-4.965.12-.466-7.753a13.342 13.342 0 0 1 .011-1.732l.49-6.771a4.331 4.331 0 0 0-.017-.8l-.2-1.77a2.264 2.264 0 0 1 2.991-2.4l.667.231a2.272 2.272 0 0 1 1.184.949 2.921 2.921 0 0 1 .232 2.6l-2.013 5.114a15.111 15.111 0 0 0-1.049 5.321zm11.54-8.528a1.007 1.007 0 0 0-.286.262l-.677.923-.494-.283a1 1 0 0 0-.8-.084c-.558.178-2.363.561-3.289-.01a3.6 3.6 0 0 1-1.386-3.05l-.017-.485a6.935 6.935 0 0 1-.006-.862 5.633 5.633 0 0 1 .254-1.18c2.136.462 6.871 1.783 9.715 2.6a23.415 23.415 0 0 1-3.014 2.169zm-1.2-12.317a1.75 1.75 0 0 1 1.636 1.142 6.779 6.779 0 0 0-3.318.149 1.75 1.75 0 0 1 1.678-1.291zm2.64 3.671a5.759 5.759 0 0 1 2.454 3.922 2.561 2.561 0 0 1-.011.719c-2.082-.6-6.959-1.981-9.651-2.6.13-.182.255-.367.4-.539 1.608-1.855 4.462-2.964 6.804-1.498zM21.142 7.964c2.309-1.278 5.608-2.91 7.368-3.764a1.936 1.936 0 0 1 1.918.128l8.634 5.739a1.092 1.092 0 0 0 .15.082L48.2 14.12a1.056 1.056 0 0 0 .2.066l7.4 1.508a.252.252 0 0 1 .175.359.252.252 0 0 1-.2.138l-5 .484a.994.994 0 0 0-.2.04l-3.337 1.04a.855.855 0 0 1-.983-.366l-1.138-1.836a1 1 0 0 0-.741-.467l-1.433-.157a24.22 24.22 0 0 1-11.2-4.209l-3.052-2.126a1 1 0 1 0-1.146 1.639l.134.093-6.079 5.588a6.354 6.354 0 0 0-.724.789L12 15.922c4.323-4.258 7.566-7.085 9.142-7.958zM4.71 30.628a275.135 275.135 0 0 0 2.627-7.147l.717-1.814A15.343 15.343 0 0 1 10.3 17.78l9.553.841a6.35 6.35 0 0 0-.247.972 7.049 7.049 0 0 1-2.418 4.236l-2.362 1.984a5.83 5.83 0 0 0-1.5 7l2.326 4.821c.018.037.029.077.046.115a4.258 4.258 0 0 0-1.163-.631l-.668-.232A4.265 4.265 0 0 0 8.235 41.4l.205 1.77a2.3 2.3 0 0 1 .009.423l-.043.59a7.414 7.414 0 0 1-3.185-3.652 7.494 7.494 0 0 1-.4-1.339c-.277-1.363-1.094-6.015-.111-8.564z" fill="#8c52ff" opacity="1" data-original="#000000" class=""></path><path d="M47 32a15 15 0 1 0 15 15 15.017 15.017 0 0 0-15-15zm0 2.95a24.961 24.961 0 0 1 0 24.1 24.961 24.961 0 0 1 0-24.1zm-2.912 1.437a26.989 26.989 0 0 0 0 21.226l-.2-.147a13 13 0 0 1 0-20.932zm5.824 21.226a26.989 26.989 0 0 0 0-21.226l.2.147a13 13 0 0 1 0 20.932zM34 47a13.022 13.022 0 0 1 9.175-12.424l-.472.348a15 15 0 0 0 0 24.152l.472.348A13.022 13.022 0 0 1 34 47zm16.825 12.424.472-.348a15 15 0 0 0 0-24.152l-.472-.348a13 13 0 0 1 0 24.848z" fill="#8c52ff" opacity="1" data-original="#000000" class=""></path></g></svg>