<svg xmlns="http://www.w3.org/2000/svg" version="1.1" xmlns:xlink="http://www.w3.org/1999/xlink" width="512" height="512" x="0" y="0" viewBox="0 0 64 64" style="enable-background:new 0 0 512 512" xml:space="preserve" class=""><g><path d="M2.076 50.605a1 1 0 0 0 .924.618h17.153a21.92 21.92 0 0 0 14.593 5.56H61a1 1 0 0 0 .707-1.707l-8.432-8.423a21.895 21.895 0 0 0 3.477-11.876c0-7.16-3.497-13.872-9.358-17.996-3.97-5.771-10.618-9.565-18.137-9.565-12.132 0-22.003 9.87-22.003 22.004 0 4.24 1.198 8.326 3.472 11.869l-8.433 8.427a1 1 0 0 0-.217 1.09zm52.676-15.828c0 4.109-1.24 8.062-3.585 11.431a1 1 0 0 0 .114 1.28l7.303 7.296H34.746a19.913 19.913 0 0 1-11.351-3.56h5.862c12.133 0 22.003-9.871 22.003-22.004 0-2.592-.454-5.08-1.28-7.39a19.993 19.993 0 0 1 4.772 12.947zm-42.031 7.146a1 1 0 0 0 .113-1.279 19.892 19.892 0 0 1-3.58-11.424c0-11.03 8.974-20.004 20.003-20.004S49.26 18.19 49.26 29.22s-8.973 20.003-20.003 20.003H5.416z" fill="#8c52ff" opacity="1" data-original="#000000" class=""></path><path d="M27.505 20.125a1 1 0 0 0-.993-.882h-7.957a1 1 0 0 0-1 1v4.859a1 1 0 0 0 1 1h2.394c-.198 2.39-.963 5.634-3.577 6.595a1 1 0 0 0-.594 1.282l1.67 4.562a1 1 0 0 0 1.283.595c9.498-3.478 8.093-16.322 8.029-16.867zm-7.54 16.74-.993-2.71c3.324-1.877 3.962-6.376 4.032-9.027a.999.999 0 0 0-1-1.026h-2.449v-2.86h6.069l.15 1.262c.054.462 1.203 10.923-5.81 14.361zM32.375 38.54a1.002 1.002 0 0 0 1.284.596c9.187-3.366 8.176-15.479 8.029-16.867l-.256-2.144a1 1 0 0 0-.993-.882h-7.962a1 1 0 0 0-1 1v4.859a1 1 0 0 0 1 1h2.394c-.198 2.391-.962 5.636-3.572 6.595a1 1 0 0 0-.594 1.282zm4.55-13.412a.999.999 0 0 0-.999-1.026h-2.45v-2.86h6.075l.15 1.257c.123 1.16.959 11.043-5.81 14.366l-.993-2.712c2.49-1.415 3.91-4.572 4.028-9.025z" fill="#8c52ff" opacity="1" data-original="#000000" class=""></path></g></svg>